<svg width="184" height="35" viewBox="0 0 321 60" fill="none" xmlns="http://www.w3.org/2000/svg">
<path d="M0.2146 4.26592V2.6408H9.96526C18.4429 2.6408 22.6817 5.2139 22.6817 10.3601C22.6817 13.9353 20.5826 16.2646 16.3844 17.3481V17.6324C21.3952 18.3908 23.9006 20.4493 23.9006 23.8079C23.9006 26.2455 22.7901 28.0738 20.5691 29.2926C18.3481 30.4844 15.2198 31.0802 11.1841 31.0802H0.2146V29.4551H2.65227V4.26592H0.2146ZM10.7778 18.3637H8.74643V29.4551H10.7778C12.7279 29.4551 14.3531 28.9676 15.6531 27.9925C16.9532 27.0175 17.6033 25.6632 17.6033 23.9297C17.6033 22.1692 16.9532 20.8014 15.6531 19.8263C14.3531 18.8513 12.7279 18.3637 10.7778 18.3637ZM9.92463 4.26592H8.74643V16.8199H9.92463C11.8477 16.8199 13.4322 16.2511 14.6781 15.1135C15.9511 13.9759 16.5876 12.4186 16.5876 10.4413C16.5876 8.46412 15.9511 6.94735 14.6781 5.89103C13.4322 4.80762 11.8477 4.26592 9.92463 4.26592Z" fill="#FFF68A"/>
<path d="M38.08 21.6952C39.8405 21.5327 41.1948 20.8691 42.1428 19.7045C43.1178 18.5127 43.6054 17.321 43.6054 16.1292C43.6054 14.9104 43.3345 13.9759 42.7928 13.3259C42.2782 12.6759 41.4792 12.3508 40.3958 12.3508C39.3394 12.3508 38.3237 13.1092 37.3487 14.626C36.3736 16.1428 35.8861 18.1742 35.8861 20.7202C35.8861 23.2662 36.3465 25.3111 37.2674 26.8549C38.1883 28.3988 39.502 29.1707 41.2083 29.1707C43.8085 29.1707 46.0159 28.155 47.8306 26.1236L48.9682 26.8549C48.0473 28.3175 46.8285 29.4958 45.3117 30.3896C43.795 31.2563 42.0886 31.6897 40.1926 31.6897C36.9695 31.6897 34.3964 30.6333 32.4734 28.5207C30.5503 26.381 29.5888 23.8079 29.5888 20.8014C29.5888 17.795 30.6045 15.276 32.6359 13.2446C34.6943 11.1862 37.5383 10.1569 41.1677 10.1569C43.5512 10.1569 45.4201 10.7122 46.7743 11.8227C48.1286 12.9332 48.8057 14.3416 48.8057 16.048C48.8057 17.7543 48.0473 19.3388 46.5306 20.8014C45.0409 22.2369 43.0637 22.9547 40.5989 22.9547C39.7593 22.9547 38.9467 22.8599 38.1612 22.6703L38.08 21.6952Z" fill="#FFF68A"/>
<path d="M76.257 10.7664V26.5706C76.257 27.3019 76.4331 27.8842 76.7852 28.3175C77.1373 28.7238 77.679 28.927 78.4103 28.927C79.1416 28.927 79.9813 28.5342 80.9292 27.7488L81.6605 28.7238C79.4937 30.701 77.3269 31.6897 75.1601 31.6897C72.587 31.6897 71.0025 30.4844 70.4067 28.0738C68.9982 30.4844 66.9262 31.6897 64.1906 31.6897C61.0758 31.6897 58.7059 30.6875 57.0808 28.6832C55.4556 26.6518 54.6431 24.0787 54.6431 20.9639C54.6431 17.822 55.5098 15.2354 57.2433 13.204C59.0038 11.1726 61.455 10.1569 64.5969 10.1569C67.0075 10.1569 68.8628 11.1185 70.1629 13.0415V10.7664H76.257ZM62.078 14.7479C61.3196 16.2646 60.9404 18.3231 60.9404 20.9233C60.9404 23.5235 61.3196 25.5819 62.078 27.0987C62.8364 28.6155 63.9875 29.3739 65.5313 29.3739C67.1023 29.3739 68.294 28.6155 69.1066 27.0987C69.9462 25.5549 70.366 23.4964 70.366 20.9233C70.366 18.3502 69.9462 16.3053 69.1066 14.7885C68.294 13.2446 67.1023 12.4727 65.5313 12.4727C63.9875 12.4727 62.8364 13.2311 62.078 14.7479Z" fill="#FFF68A"/>
<path d="M92.791 12.6352V26.5706C92.791 27.4102 93.0483 28.0602 93.5629 28.5207C94.0775 28.9811 94.7953 29.2114 95.7162 29.2114C96.6371 29.2114 97.5309 28.8322 98.3976 28.0738C99.2643 27.3154 99.6977 26.3268 99.6977 25.108V10.7664H105.792V26.5706C105.792 27.3019 105.968 27.8842 106.32 28.3175C106.672 28.7238 107.214 28.927 107.945 28.927C108.676 28.927 109.516 28.5342 110.464 27.7488L111.195 28.7238C109.029 30.701 106.821 31.6897 104.573 31.6897C102.325 31.6897 100.835 30.6875 100.104 28.6832C99.0476 29.7937 97.9507 30.5792 96.8131 31.0396C95.7026 31.473 94.2671 31.6897 92.5066 31.6897C90.7731 31.6897 89.3647 31.1615 88.2813 30.1052C87.225 29.0218 86.6968 27.5592 86.6968 25.7174V12.1071C85.2071 12.4863 84.0695 13.1499 83.2841 14.0978L82.1871 12.8384C82.9726 12.0258 83.9612 11.3758 85.1529 10.8882C86.3718 10.4007 87.5635 10.1569 88.7282 10.1569C89.9199 10.1569 90.895 10.4007 91.6534 10.8882C92.4118 11.3487 92.791 11.931 92.791 12.6352Z" fill="#FFF68A"/>
<path d="M112.781 13.0009V11.3351H116.113V5.48475H122.207V11.3351H126.798V13.0009H122.207V26.5706C122.207 27.3019 122.383 27.8842 122.735 28.3175C123.087 28.7238 123.629 28.927 124.36 28.927C125.091 28.927 125.931 28.5342 126.879 27.7488L127.61 28.7238C125.443 30.701 123.277 31.6897 121.11 31.6897C117.778 31.6897 116.113 29.6989 116.113 25.7174V13.0009H112.781Z" fill="#FFF68A"/>
<path d="M129.757 12.8384C130.542 12.0258 131.531 11.3758 132.722 10.8882C133.941 10.4007 135.133 10.1569 136.298 10.1569C137.489 10.1569 138.464 10.4007 139.223 10.8882C139.981 11.3487 140.36 11.931 140.36 12.6352V24.9454C140.36 25.8122 140.631 26.4758 141.173 26.9362C141.715 27.3696 142.392 27.5862 143.204 27.5862C144.938 27.5862 146.414 26.8414 147.633 25.3517C148.879 23.862 149.502 21.9525 149.502 19.6232C149.502 18.3231 149.244 16.9553 148.73 15.5198C148.242 15.8448 147.619 16.0073 146.861 16.0073C146.102 16.0073 145.412 15.7094 144.789 15.1135C144.193 14.4906 143.895 13.7457 143.895 12.879C143.895 12.0123 144.193 11.281 144.789 10.6851C145.412 10.0621 146.184 9.75066 147.105 9.75066C148.025 9.75066 148.811 10.1028 149.461 10.807C150.138 11.4841 150.626 12.3915 150.924 13.529C151.411 15.5063 151.655 17.7002 151.655 20.1107C151.655 22.4942 151.37 24.8913 150.802 27.3019C150.26 29.7124 149.529 31.7845 148.608 33.5179C147.714 35.2514 146.698 36.7546 145.561 38.0276C143.231 40.5736 140.861 41.8466 138.451 41.8466C137.801 41.8466 137.259 41.6976 136.826 41.3997C136.419 41.1288 135.945 40.6142 135.404 39.8558L133.291 36.9306L134.347 35.8337C135.648 36.0504 136.785 36.1587 137.76 36.1587C140.794 36.1587 143.272 35.1972 145.195 33.2741C147.118 31.3511 148.635 28.2228 149.745 23.8891C148.066 28.5478 144.978 30.8771 140.482 30.8771C138.749 30.8771 137.273 30.2948 136.054 29.1301C134.862 27.9384 134.266 26.2591 134.266 24.0923V12.1071C132.777 12.4863 131.639 13.1499 130.853 14.0978L129.757 12.8384Z" fill="#FFF68A"/>
<path d="M175.412 31.6897C173.76 31.6897 172.392 31.0802 171.309 29.8614C170.253 28.6426 169.724 27.0175 169.724 24.9861C169.724 22.9547 170.347 21.2348 171.593 19.8263C172.839 18.4179 174.613 17.7137 176.915 17.7137H177.403C175.48 13.8676 174.518 10.9424 174.518 8.93811C174.518 4.33363 177.552 2.03139 183.619 2.03139C185.515 2.03139 187.303 2.46475 188.982 3.33148C190.661 4.1982 191.501 5.22744 191.501 6.41918C191.501 6.87963 191.352 7.40779 191.054 8.00367L189.104 11.7414L187.682 11.2945V7.88178C187.682 6.66295 187.262 5.70143 186.422 4.99722C185.61 4.293 184.608 3.94089 183.416 3.94089C182.224 3.94089 181.303 4.25237 180.653 4.87533C180.03 5.47121 179.719 6.17542 179.719 6.98797C179.719 8.09847 180.288 9.79129 181.425 12.0664C181.723 12.6623 181.967 13.1769 182.156 13.6103C182.373 14.0437 182.698 14.6937 183.132 15.5604C183.565 16.4001 183.931 17.1178 184.228 17.7137H191.054V19.542H185.122L188.819 27.0987C189.415 28.3175 190.201 28.927 191.176 28.927C192.151 28.927 193.112 28.5342 194.06 27.7488L194.792 28.7238C192.625 30.701 190.323 31.6897 187.885 31.6897C186.585 31.6897 185.488 31.3646 184.594 30.7146C183.7 30.0645 182.752 28.6561 181.75 26.4893C181.344 28.0332 180.599 29.2926 179.516 30.2677C178.432 31.2157 177.064 31.6897 175.412 31.6897ZM176.022 20.7608C175.561 21.5733 175.331 22.6703 175.331 24.0516C175.331 25.433 175.534 26.5706 175.94 27.4644C176.347 28.3582 176.983 28.8051 177.85 28.8051C178.717 28.8051 179.38 28.3717 179.841 27.505C180.328 26.6383 180.586 25.5142 180.613 24.1329L178.337 19.542H178.175C177.227 19.542 176.509 19.9482 176.022 20.7608Z" fill="#FFF68A"/>
<path d="M210.617 31.0802V29.4551H213.055V4.26592H210.617V2.6408H220.124L231.744 25.5142V4.26592H229.306V2.6408H237.025V4.26592H234.588V31.0802H228.128L215.899 7.0286V29.4551H218.336V31.0802H210.617Z" fill="#FFF68A"/>
<path d="M264.511 10.7664V26.5706C264.511 27.3019 264.687 27.8842 265.039 28.3175C265.391 28.7238 265.933 28.927 266.664 28.927C267.396 28.927 268.235 28.5342 269.183 27.7488L269.915 28.7238C267.748 30.701 265.581 31.6897 263.414 31.6897C260.841 31.6897 259.257 30.4844 258.661 28.0738C257.252 30.4844 255.18 31.6897 252.445 31.6897C249.33 31.6897 246.96 30.6875 245.335 28.6832C243.71 26.6518 242.897 24.0787 242.897 20.9639C242.897 17.822 243.764 15.2354 245.497 13.204C247.258 11.1726 249.709 10.1569 252.851 10.1569C255.262 10.1569 257.117 11.1185 258.417 13.0415V10.7664H264.511ZM250.332 14.7479C249.574 16.2646 249.194 18.3231 249.194 20.9233C249.194 23.5235 249.574 25.5819 250.332 27.0987C251.09 28.6155 252.242 29.3739 253.785 29.3739C255.356 29.3739 256.548 28.6155 257.361 27.0987C258.2 25.5549 258.62 23.4964 258.62 20.9233C258.62 18.3502 258.2 16.3053 257.361 14.7885C256.548 13.2446 255.356 12.4727 253.785 12.4727C252.242 12.4727 251.09 13.2311 250.332 14.7479Z" fill="#FFF68A"/>
<path d="M276.17 6.17542C275.547 5.52538 275.235 4.75345 275.235 3.85964C275.235 2.96583 275.547 2.20744 276.17 1.58448C276.82 0.934438 277.592 0.609416 278.485 0.609416C279.379 0.609416 280.138 0.934438 280.761 1.58448C281.411 2.20744 281.736 2.96583 281.736 3.85964C281.736 4.75345 281.411 5.52538 280.761 6.17542C280.138 6.79838 279.379 7.10986 278.485 7.10986C277.592 7.10986 276.82 6.79838 276.17 6.17542ZM277.714 10.1569C280.26 10.1569 281.533 11.2539 281.533 13.4478V26.5706C281.533 27.3019 281.709 27.8842 282.061 28.3175C282.413 28.7238 282.955 28.927 283.686 28.927C284.417 28.927 285.257 28.5342 286.205 27.7488L286.936 28.7238C284.769 30.701 282.602 31.6897 280.436 31.6897C277.104 31.6897 275.438 29.6989 275.438 25.7174V12.1071C273.949 12.4863 272.811 13.1499 272.026 14.0978L270.929 12.8384C271.714 12.0258 272.703 11.3758 273.895 10.8882C275.113 10.4007 276.386 10.1569 277.714 10.1569Z" fill="#FFF68A"/>
<path d="M286.953 2.68143C287.738 1.86888 288.727 1.21883 289.919 0.7313C291.138 0.243767 292.329 0 293.494 0C294.686 0 295.661 0.243767 296.419 0.7313C297.178 1.19175 297.557 1.77408 297.557 2.47829V26.5706C297.557 27.3019 297.733 27.8842 298.085 28.3175C298.437 28.7238 298.979 28.927 299.71 28.927C300.441 28.927 301.281 28.5342 302.229 27.7488L302.96 28.7238C300.793 30.701 298.627 31.6897 296.46 31.6897C293.128 31.6897 291.463 29.6989 291.463 25.7174V1.95013C289.973 2.32933 288.835 2.99291 288.05 3.94089L286.953 2.68143Z" fill="#FFF68A"/>
<path d="M310.071 14.0978C309.421 13.0957 309.096 12.2019 309.096 11.4164C309.096 10.6309 309.394 9.94026 309.99 9.34438C310.613 8.72143 311.358 8.40995 312.224 8.40995C313.091 8.40995 313.822 8.72143 314.418 9.34438C315.041 9.94026 315.353 10.658 315.353 11.4977C315.353 12.3373 314.933 13.2311 314.093 14.1791C316.314 15.8042 318.021 17.4022 319.212 18.9732C320.404 20.517 321 22.3182 321 24.3767C321 26.408 320.228 28.1415 318.684 29.577C317.14 30.9854 314.946 31.6897 312.102 31.6897C310.802 31.6897 309.489 31.4053 308.162 30.8365C306.861 30.2677 305.873 29.5635 305.196 28.7238L306.13 27.7488C307.322 28.6967 308.608 29.1707 309.99 29.1707C311.371 29.1707 312.495 28.8051 313.362 28.0738C314.256 27.3154 314.703 26.1507 314.703 24.5798C314.703 22.088 313.782 19.4878 311.94 16.7793L305.805 24.4579L304.789 23.5641C306.848 20.2326 308.608 17.0772 310.071 14.0978Z" fill="#FFF68A"/>
<path d="M90 59.3922V57.9484L91.9275 57.6275V44.4843L90 44.1635V42.7082H91.9275H95.0375L100.583 55.3701H100.654L106.023 42.7082H111.214V44.1635L109.287 44.4843V57.6275L111.214 57.9484V59.3922H105.03V57.9484L107.064 57.6275V52.7919V45.7906L107.004 45.7791L101.411 58.7963H99.8621L94.0796 45.8021L94.0205 45.8135L94.1033 52.7919V57.6275L96.1845 57.9484V59.3922H90Z" fill="#FFF68A"/>
<path d="M130.85 59.6328C129.667 59.6328 128.646 59.3654 127.787 58.8307C126.936 58.2883 126.277 57.5435 125.812 56.5962C125.347 55.6413 125.115 54.5528 125.115 53.3305V53.0784C125.115 51.8561 125.347 50.7714 125.812 49.8241C126.277 48.8692 126.936 48.1206 127.787 47.5782C128.646 47.0358 129.659 46.7646 130.826 46.7646C132.009 46.7646 133.026 47.0358 133.877 47.5782C134.736 48.1206 135.398 48.8654 135.864 49.8126C136.329 50.7599 136.561 51.8485 136.561 53.0784V53.3305C136.561 54.5604 136.329 55.6528 135.864 56.6077C135.398 57.555 134.74 58.296 133.889 58.8307C133.037 59.3654 132.024 59.6328 130.85 59.6328ZM130.85 57.8682C131.591 57.8682 132.21 57.6734 132.706 57.2838C133.211 56.8865 133.589 56.348 133.842 55.6681C134.102 54.9805 134.232 54.2014 134.232 53.3305V53.0784C134.232 52.2075 134.102 51.4321 133.842 50.7523C133.589 50.0647 133.211 49.5262 132.706 49.1366C132.202 48.7393 131.575 48.5407 130.826 48.5407C130.085 48.5407 129.462 48.7393 128.958 49.1366C128.453 49.5262 128.075 50.0647 127.823 50.7523C127.57 51.4321 127.444 52.2075 127.444 53.0784V53.3305C127.444 54.2014 127.57 54.9805 127.823 55.6681C128.075 56.348 128.453 56.8865 128.958 57.2838C129.47 57.6734 130.101 57.8682 130.85 57.8682Z" fill="#FFF68A"/>
<path d="M157.025 59.6328C156.189 59.6328 155.464 59.48 154.849 59.1745C154.234 58.8613 153.722 58.4029 153.312 57.7994L153.099 59.3922H151.089V43.2926L149.161 42.9717V41.5165H153.418V48.4605C153.82 47.9105 154.317 47.4903 154.908 47.2C155.507 46.9097 156.205 46.7646 157.001 46.7646C158.057 46.7646 158.956 47.0434 159.697 47.6011C160.446 48.1511 161.018 48.9265 161.412 49.9272C161.814 50.928 162.015 52.0929 162.015 53.4222V53.6628C162.015 54.8545 161.814 55.8972 161.412 56.791C161.018 57.6848 160.446 58.3838 159.697 58.888C158.956 59.3845 158.065 59.6328 157.025 59.6328ZM156.433 57.7994C157.529 57.7994 158.341 57.4213 158.869 56.665C159.405 55.9087 159.674 54.908 159.674 53.6628V53.4222C159.674 52.4673 159.555 51.6308 159.319 50.9127C159.082 50.187 158.724 49.6217 158.243 49.2168C157.762 48.8043 157.151 48.598 156.41 48.598C155.692 48.598 155.085 48.7661 154.589 49.1022C154.1 49.4383 153.71 49.889 153.418 50.4543V55.9316C153.71 56.5046 154.104 56.9591 154.601 57.2952C155.105 57.6313 155.716 57.7994 156.433 57.7994Z" fill="#FFF68A"/>
<path d="M175.561 59.3922V57.9484L177.488 57.6275V48.7699L175.561 48.449V46.9938H179.818V57.6275L181.745 57.9484V59.3922H175.561ZM177.37 43.9343V41.5165H179.818V43.9343H177.37Z" fill="#FFF68A"/>
<path d="M195.102 59.3922V57.9484L197.029 57.6275V43.2926L195.102 42.9717V41.5165H199.359V57.6275L201.286 57.9484V59.3922H195.102Z" fill="#FFF68A"/>
<path d="M220.413 59.6328C219.231 59.6328 218.202 59.3731 217.327 58.8536C216.452 58.3265 215.774 57.597 215.293 56.665C214.82 55.733 214.584 54.6559 214.584 53.4336V52.9294C214.584 51.753 214.832 50.7026 215.329 49.7783C215.833 48.8463 216.499 48.1129 217.327 47.5782C218.163 47.0358 219.073 46.7646 220.059 46.7646C221.21 46.7646 222.171 46.9938 222.944 47.4521C223.724 47.9105 224.312 48.556 224.706 49.3887C225.1 50.2137 225.297 51.1877 225.297 52.3107V53.7201H216.996L216.961 53.7774C216.976 54.5719 217.118 55.2785 217.386 55.8973C217.662 56.5084 218.056 56.9897 218.569 57.3411C219.081 57.6925 219.696 57.8682 220.413 57.8682C221.202 57.8682 221.892 57.7612 222.483 57.5473C223.082 57.3258 223.598 57.024 224.032 56.6421L224.942 58.1088C224.485 58.5366 223.878 58.8994 223.121 59.1974C222.372 59.4877 221.47 59.6328 220.413 59.6328ZM217.067 51.9554H222.968V51.6575C222.968 51.0616 222.857 50.5307 222.637 50.0647C222.424 49.5911 222.1 49.2206 221.667 48.9532C221.241 48.6782 220.705 48.5407 220.059 48.5407C219.538 48.5407 219.065 48.6897 218.64 48.9876C218.214 49.2779 217.863 49.6751 217.587 50.1793C217.311 50.6835 217.13 51.2564 217.043 51.8981L217.067 51.9554Z" fill="#FFF68A"/>
</svg>
